<?xml version="1.0" encoding="utf-8"?>
<!-- Generator: Adobe Illustrator 25.0.0, SVG Export Plug-In . SVG Version: 6.00 Build 0)  -->
<svg version="1.1" id="图层_1" xmlns="http://www.w3.org/2000/svg" xmlns:xlink="http://www.w3.org/1999/xlink" x="0px" y="0px"
	 viewBox="0 0 1000 1000" style="enable-background:new 0 0 1000 1000;" xml:space="preserve">
<style type="text/css">
	.st0{fill:none;stroke:#4586ED;stroke-width:20;stroke-miterlimit:10;}
	.st1{fill:#4586ED;}
	.st2{fill:none;stroke:#EFEA4B;stroke-width:20;stroke-miterlimit:10;}
	.st3{fill:#EFEA4B;}
	.st4{fill:#50EA8E;}
</style>
<g>
	<path class="st0" d="M214.7,749.7c-19.1,0-37.9-5.1-54.5-14.6c-25.2-14.6-43.3-38.1-50.9-66.3s-3.7-57.6,10.9-82.8l157.6-273
		c19.4-33.7,55.7-54.6,94.6-54.6c19.1,0,37.9,5.1,54.5,14.6c52.1,30.1,70,97,40,149.1l-157.6,273
		C289.9,728.8,253.6,749.7,214.7,749.7z"/>
	<path class="st1" d="M214.7,749.7c-19.1,0-37.9-5.1-54.5-14.6c-25.2-14.6-43.3-38.1-50.9-66.3s-3.7-57.6,10.9-82.8l34.4-59.6
		c19.4-33.7,55.7-54.6,94.6-54.6c19.1,0,37.9,5.1,54.5,14.6c25.2,14.6,43.3,38.1,50.9,66.3c7.5,28.2,3.7,57.6-10.9,82.8l-34.4,59.6
		C289.9,728.8,253.6,749.7,214.7,749.7z"/>
	<path class="st2" d="M508.5,748.8c-19.1,0-37.9-5.1-54.5-14.6c-25.2-14.6-43.3-38.1-50.9-66.3s-3.7-57.6,10.9-82.8l147.8-256
		c19.4-33.7,55.7-54.6,94.6-54.6c19.1,0,37.9,5.1,54.5,14.6c25.2,14.6,43.3,38.1,50.9,66.3s3.7,57.6-10.9,82.8l-147.8,256
		C583.7,727.9,547.4,748.8,508.5,748.8z"/>
	<path class="st3" d="M626.2,545c-19.1,0-37.9-5.1-54.5-14.6c-25.2-14.6-43.3-38.1-50.9-66.3c-7.5-28.2-3.7-57.6,10.9-82.8
		l30.1-52.2c19.4-33.7,55.7-54.6,94.6-54.6c19.1,0,37.9,5.1,54.5,14.6c25.2,14.6,43.3,38.1,50.9,66.3s3.7,57.6-10.9,82.8l-30.1,52.2
		C701.4,524.1,665.1,545,626.2,545z"/>
	<ellipse class="st4" cx="782.9" cy="656.5" rx="111.6" ry="111.6"/>
</g>
</svg>
