<?xml version="1.0" encoding="utf-8"?>
<!-- Generator: Adobe Illustrator 25.0.0, SVG Export Plug-In . SVG Version: 6.00 Build 0)  -->
<svg version="1.1" id="图层_1" xmlns="http://www.w3.org/2000/svg" xmlns:xlink="http://www.w3.org/1999/xlink" x="0px" y="0px"
	 viewBox="0 0 1000 1000" style="enable-background:new 0 0 1000 1000;" xml:space="preserve">
<style type="text/css">
	.st0{fill:none;stroke:#4586ED;stroke-width:5;stroke-miterlimit:10;}
	.st1{fill:#4586ED;}
	.st2{fill:none;stroke:#EFEA4B;stroke-width:5;stroke-miterlimit:10;}
	.st3{fill:#EFEA4B;}
	.st4{fill:#50EA8E;}
</style>
<g>
	<path class="st0" d="M212,752.3c-19.1,0-37.9-5.1-54.5-14.6c-25.2-14.6-43.3-38.1-50.9-66.3s-3.7-57.6,10.9-82.8l157.6-273
		c19.4-33.7,55.7-54.6,94.6-54.6c19.1,0,37.9,5.1,54.5,14.6c52.1,30.1,70,97,40,149.1l-157.6,273C287.2,731.4,250.9,752.3,212,752.3
		z"/>
</g>
<g>
	<path class="st1" d="M212,752.3c-19.1,0-37.9-5.1-54.5-14.6c-25.2-14.6-43.3-38.1-50.9-66.3s-3.7-57.6,10.9-82.8l34.4-59.6
		c19.4-33.7,55.7-54.6,94.6-54.6c19.1,0,37.9,5.1,54.5,14.6c25.2,14.6,43.3,38.1,50.9,66.3c7.5,28.2,3.7,57.6-10.9,82.8l-34.4,59.6
		C287.2,731.4,250.9,752.3,212,752.3z"/>
</g>
<g>
	<path class="st2" d="M505.8,751.4c-19.1,0-37.9-5.1-54.5-14.6c-25.2-14.6-43.3-38.1-50.9-66.3s-3.7-57.6,10.9-82.8l147.8-256
		c19.4-33.7,55.7-54.6,94.6-54.6c19.1,0,37.9,5.1,54.5,14.6c25.2,14.6,43.3,38.1,50.9,66.3s3.7,57.6-10.9,82.8l-147.8,256
		C581,730.5,544.7,751.4,505.8,751.4z"/>
</g>
<g>
	<path class="st3" d="M623.5,547.6c-19.1,0-37.9-5.1-54.5-14.6c-25.2-14.6-43.3-38.1-50.9-66.3c-7.5-28.2-3.7-57.6,10.9-82.8
		l30.1-52.2c19.4-33.7,55.7-54.6,94.6-54.6c19.1,0,37.9,5.1,54.5,14.6c25.2,14.6,43.3,38.1,50.9,66.3s3.7,57.6-10.9,82.8L718.1,493
		C698.7,526.7,662.4,547.6,623.5,547.6z"/>
</g>
<g>
	
		<ellipse transform="matrix(0.2298 -0.9732 0.9732 0.2298 -30.2728 1260.5997)" class="st4" cx="781.3" cy="649.4" rx="99.3" ry="99.3"/>
</g>
</svg>
